<svg width="40" height="40" viewBox="0 0 40 40" fill="none" xmlns="http://www.w3.org/2000/svg">
<path d="M23.3333 33.3333C23.3333 34.2174 22.9821 35.0652 22.357 35.6903C21.7319 36.3155 20.8841 36.6667 20 36.6667H18.3333C17.4493 36.6667 16.6014 36.3155 15.9763 35.6903C15.3512 35.0652 15 34.2174 15 33.3333H16.6667C16.6667 33.7754 16.8423 34.1993 17.1548 34.5118C17.4674 34.8244 17.8913 35 18.3333 35H20C20.442 35 20.8659 34.8244 21.1785 34.5118C21.4911 34.1993 21.6667 33.7754 21.6667 33.3333H23.3333ZM25 28.3333C25 29.2174 24.6488 30.0652 24.0237 30.6903C23.3986 31.3155 22.5507 31.6667 21.6667 31.6667H16.6667C15.7826 31.6667 14.9348 31.3155 14.3096 30.6903C13.6845 30.0652 13.3333 29.2174 13.3333 28.3333V24.9633C11.3589 23.7017 9.84682 21.8339 9.02374 19.6402C8.20067 17.4464 8.11101 15.045 8.76821 12.796C9.42542 10.547 10.7941 8.57165 12.6689 7.16629C14.5437 5.76093 16.8236 5.00128 19.1667 5.00128C21.5097 5.00128 23.7896 5.76093 25.6644 7.16629C27.5393 8.57165 28.9079 10.547 29.5651 12.796C30.2223 15.045 30.1327 17.4464 29.3096 19.6402C28.4865 21.8339 26.9744 23.7017 25 24.9633V28.3333ZM15 28.3333C15 28.7754 15.1756 29.1993 15.4882 29.5118C15.8007 29.8244 16.2246 30 16.6667 30H21.6667C22.1087 30 22.5326 29.8244 22.8452 29.5118C23.1577 29.1993 23.3333 28.7754 23.3333 28.3333V24C25.1669 23.0643 26.6322 21.5387 27.4931 19.6689C28.354 17.799 28.5606 15.6938 28.0794 13.6923C27.5982 11.6908 26.4574 9.90957 24.8406 8.6354C23.2238 7.36124 21.2252 6.66836 19.1667 6.66836C17.1081 6.66836 15.1095 7.36124 13.4928 8.6354C11.876 9.90957 10.7351 11.6908 10.2539 13.6923C9.77276 15.6938 9.97928 17.799 10.8402 19.6689C11.7012 21.5387 13.1664 23.0643 15 24V28.3333Z" fill="#00F729"/>
</svg>
