<svg width="41" height="40" viewBox="0 0 41 40" fill="none" xmlns="http://www.w3.org/2000/svg">
<path d="M33.1467 25.82L30.1233 23.67C30.6311 21.803 30.6282 19.8338 30.115 17.9683L33.1483 15.845L30.7267 11.655L27.3533 13.1983C25.9899 11.825 24.2826 10.843 22.41 10.355L22.0883 6.66664H17.245L16.9233 10.355C15.0511 10.8437 13.3444 11.8263 11.9817 13.2L8.60667 11.6566L6.18667 15.8466L9.22 17.97C8.70654 19.8348 8.70308 21.8033 9.21 23.67L6.18667 25.82L8.60667 29.99L11.9817 28.445C13.3446 29.8181 15.0513 30.8 16.9233 31.2883L17.245 34.9766H22.0883L22.41 31.2883C24.282 30.8 25.9887 29.818 27.3517 28.445L30.7267 29.99L33.1483 25.8216L33.1467 25.82ZM23.0083 4.97498C23.2229 4.97475 23.4292 5.05727 23.5844 5.20535C23.7397 5.35343 23.8318 5.55567 23.8417 5.76998L24.1383 9.16164C25.3704 9.63116 26.5198 10.2939 27.5433 11.125L30.6267 9.68664C30.8171 9.58866 31.038 9.56776 31.2434 9.62827C31.4488 9.68878 31.6231 9.82607 31.73 10.0116L35.0717 15.795C35.179 15.9804 35.2109 16.2 35.1606 16.4082C35.1103 16.6165 34.9818 16.7973 34.8017 16.9133L32.0117 18.8666C32.225 20.1966 32.2183 21.5216 32.0133 22.7983L34.8017 24.7483C34.9822 24.8643 35.1111 25.0455 35.1614 25.2541C35.2117 25.4628 35.1795 25.6828 35.0717 25.8683L31.73 31.63C31.6231 31.8156 31.4488 31.9528 31.2434 32.0134C31.038 32.0739 30.8171 32.053 30.6267 31.955L27.5433 30.5166C26.54 31.3333 25.3967 32 24.1383 32.4816L23.8417 35.8733C23.8314 36.0873 23.7391 36.2891 23.5839 36.4369C23.4287 36.5846 23.2226 36.6669 23.0083 36.6666H16.325C16.1107 36.6669 15.9046 36.5846 15.7494 36.4369C15.5943 36.2891 15.502 36.0873 15.4917 35.8733L15.195 32.4816C13.9629 32.0115 12.8135 31.3482 11.79 30.5166L8.70667 31.955C8.51626 32.0536 8.29516 32.075 8.08935 32.0148C7.88354 31.9546 7.70887 31.8174 7.60167 31.6316L4.26167 25.8666C4.1543 25.6813 4.12244 25.4617 4.17272 25.2534C4.223 25.0452 4.35154 24.8643 4.53167 24.7483L7.32 22.7966C7.11119 21.4944 7.11119 20.1672 7.32 18.865L4.53333 16.9133C4.35365 16.7974 4.22541 16.6168 4.17516 16.4089C4.1249 16.2011 4.15647 15.9819 4.26333 15.7966L7.6 10.0116C7.70693 9.82564 7.88148 9.68805 8.08731 9.62751C8.29315 9.56697 8.51439 9.58815 8.705 9.68664L11.7883 11.125C12.8119 10.2939 13.9613 9.63116 15.1933 9.16164L15.49 5.76998C15.4999 5.55567 15.592 5.35343 15.7472 5.20535C15.9025 5.05727 16.1088 4.97475 16.3233 4.97498H23.0067H23.0083ZM19.6667 15C21.2138 15 22.6975 15.6146 23.7915 16.7085C24.8854 17.8025 25.5 19.2862 25.5 20.8333C25.5 22.3804 24.8854 23.8641 23.7915 24.9581C22.6975 26.0521 21.2138 26.6666 19.6667 26.6666C18.1196 26.6666 16.6358 26.0521 15.5419 24.9581C14.4479 23.8641 13.8333 22.3804 13.8333 20.8333C13.8333 19.2862 14.4479 17.8025 15.5419 16.7085C16.6358 15.6146 18.1196 15 19.6667 15ZM19.6667 16.6666C18.5616 16.6666 17.5018 17.1056 16.7204 17.887C15.939 18.6684 15.5 19.7282 15.5 20.8333C15.5 21.9384 15.939 22.9982 16.7204 23.7796C17.5018 24.561 18.5616 25 19.6667 25C20.7717 25 21.8315 24.561 22.6129 23.7796C23.3943 22.9982 23.8333 21.9384 23.8333 20.8333C23.8333 19.7282 23.3943 18.6684 22.6129 17.887C21.8315 17.1056 20.7717 16.6666 19.6667 16.6666V16.6666Z" fill="#00F729"/>
</svg>
