<svg width="175" height="27" viewBox="0 0 175 27" fill="none" xmlns="http://www.w3.org/2000/svg">
<path d="M14.4675 11.7473L12.375 6.8175L10.2803 11.7529L4.94438 12.2198L8.98988 15.7376L7.78613 20.9576L12.3818 18.1957L16.9718 20.9543L15.7669 15.7298L19.809 12.2164L14.4675 11.7484V11.7473ZM18.6649 23.2819L12.3818 19.5064L6.093 23.2852L7.74225 16.1415L2.205 11.3287L9.50738 10.6909L12.375 3.9375L15.2393 10.6853L22.5473 11.3254L17.0145 16.1348L18.6649 23.2819Z" fill="#00F729"/>
<path d="M51.4675 11.7473L49.375 6.8175L47.2803 11.7529L41.9444 12.2198L45.9899 15.7376L44.7861 20.9576L49.3818 18.1957L53.9718 20.9543L52.7669 15.7298L56.809 12.2164L51.4675 11.7484V11.7473ZM55.6649 23.2819L49.3818 19.5064L43.093 23.2852L44.7423 16.1415L39.205 11.3287L46.5074 10.6909L49.375 3.9375L52.2393 10.6853L59.5473 11.3254L54.0145 16.1348L55.6649 23.2819Z" fill="#00F729"/>
<path d="M88.4675 11.7473L86.375 6.8175L84.2802 11.7529L78.9444 12.2198L82.9899 15.7376L81.7861 20.9576L86.3817 18.1957L90.9717 20.9543L89.7669 15.7298L93.809 12.2164L88.4675 11.7484V11.7473ZM92.6649 23.2819L86.3817 19.5064L80.093 23.2852L81.7422 16.1415L76.205 11.3287L83.5074 10.6909L86.375 3.9375L89.2392 10.6853L96.5472 11.3254L91.0145 16.1348L92.6649 23.2819Z" fill="#00F729"/>
<path d="M125.467 11.7473L123.375 6.8175L121.28 11.7529L115.944 12.2198L119.99 15.7376L118.786 20.9576L123.382 18.1957L127.972 20.9543L126.767 15.7298L130.809 12.2164L125.467 11.7484V11.7473ZM129.665 23.2819L123.382 19.5064L117.093 23.2852L118.742 16.1415L113.205 11.3287L120.507 10.6909L123.375 3.9375L126.239 10.6853L133.547 11.3254L128.014 16.1348L129.665 23.2819Z" fill="#00F729"/>
<path d="M162.467 11.7473L160.375 6.8175L158.28 11.7529L152.944 12.2198L156.99 15.7376L155.786 20.9576L160.382 18.1957L164.972 20.9543L163.767 15.7298L167.809 12.2164L162.467 11.7484V11.7473ZM166.665 23.2819L160.382 19.5064L154.093 23.2852L155.742 16.1415L150.205 11.3287L157.507 10.6909L160.375 3.9375L163.239 10.6853L170.547 11.3254L165.014 16.1348L166.665 23.2819Z" fill="#00F729"/>
</svg>
